<svg width="40" height="40" viewBox="0 0 40 40" fill="none" xmlns="http://www.w3.org/2000/svg">
<path d="M20 40.0001C8.95161 40.0001 0 31.0484 0 20.0001C0 8.95167 8.95161 6.10352e-05 20 6.10352e-05C31.0484 6.10352e-05 40 8.95167 40 20.0001C40 31.0484 31.0484 40.0001 20 40.0001ZM29.3548 16.4517H20V10.7339C20 9.87103 18.9516 9.43555 18.3468 10.0484L9.12903 19.3146C8.75 19.6936 8.75 20.2984 9.12903 20.6775L18.3468 29.9436C18.9597 30.5565 20 30.121 20 29.2581V23.5484H29.3548C29.8871 23.5484 30.3226 23.113 30.3226 22.5807V17.4194C30.3226 16.8872 29.8871 16.4517 29.3548 16.4517Z" fill="white"/>
</svg>
