<svg width="22" height="22" viewBox="0 0 22 22" fill="none" xmlns="http://www.w3.org/2000/svg">
    <path d="M16.6998 0.20197C16.7636 0.137948 16.8395 0.0871543 16.923 0.0524969C17.0065 0.0178396 17.0961 0 17.1865 0C17.2769 0 17.3664 0.0178396 17.45 0.0524969C17.5335 0.0871543 17.6094 0.137948 17.6732 0.20197L21.798 4.32679C21.8621 4.39065 21.9128 4.46651 21.9475 4.55003C21.9822 4.63355 22 4.72309 22 4.81352C22 4.90394 21.9822 4.99348 21.9475 5.077C21.9128 5.16052 21.8621 5.23639 21.798 5.30025L8.04863 19.0496C7.98265 19.1152 7.90407 19.1666 7.81764 19.2009L0.942942 21.9508C0.81801 22.0008 0.681148 22.013 0.549324 21.986C0.417499 21.9589 0.29651 21.8938 0.201356 21.7986C0.106201 21.7035 0.0410651 21.5825 0.0140235 21.4507C-0.0130181 21.3189 -0.000776283 21.182 0.0492312 21.0571L2.79911 14.1824C2.83339 14.0959 2.88484 14.0173 2.95035 13.9514L16.6998 0.20197ZM15.4087 3.43858L18.5614 6.59132L20.3392 4.81352L17.1865 1.66078L15.4087 3.43858ZM17.5893 7.5634L14.4366 4.41066L5.49949 13.3478V13.7506H6.18696C6.36929 13.7506 6.54415 13.8231 6.67308 13.952C6.802 14.0809 6.87443 14.2558 6.87443 14.4381V15.1256H7.5619C7.74423 15.1256 7.91909 15.198 8.04802 15.3269C8.17694 15.4558 8.24937 15.6307 8.24937 15.813V16.5005H8.65223L17.5893 7.5634ZM4.16855 14.6787L4.02281 14.8245L1.9219 20.0781L7.17554 17.9772L7.32129 17.8314C7.19015 17.7824 7.07709 17.6946 6.99723 17.5796C6.91738 17.4646 6.87454 17.328 6.87443 17.188V16.5005H6.18696C6.00463 16.5005 5.82977 16.4281 5.70085 16.2992C5.57192 16.1702 5.49949 15.9954 5.49949 15.813V15.1256H4.81202C4.67203 15.1255 4.5354 15.0826 4.42041 15.0028C4.30542 14.9229 4.21755 14.8099 4.16855 14.6787Z"
          fill="#B33951"/>
</svg>
