<svg width="40" height="36" viewBox="0 0 40 36" fill="none" xmlns="http://www.w3.org/2000/svg">
<path d="M26.669 8.46601C26.669 8.02847 26.4954 7.60483 26.1828 7.2923L19.3836 0.486153C19.0711 0.173626 18.6475 0 18.203 0H17.7793V8.88966H26.669V8.46601ZM39.6562 21.3907L33.0098 14.6957C32.3084 13.9943 31.1069 14.4874 31.1069 15.4805V20.0017H26.662V24.4466H31.1069V28.9747C31.1069 29.9679 32.3084 30.461 33.0098 29.7595L39.6562 23.0576C40.1146 22.5992 40.1146 21.8491 39.6562 21.3907ZM13.3345 23.3354V21.1129C13.3345 20.5018 13.8345 20.0017 14.4457 20.0017H26.669V11.1121H17.2237C16.307 11.1121 15.5569 10.362 15.5569 9.44526V0H1.66681C0.74312 0 0 0.74312 0 1.66681V33.8918C0 34.8155 0.74312 35.5586 1.66681 35.5586H25.0022C25.9259 35.5586 26.669 34.8155 26.669 33.8918V24.4466H14.4457C13.8345 24.4466 13.3345 23.9465 13.3345 23.3354Z" fill="white"/>
</svg>
