<svg width="40" height="32" viewBox="0 0 40 32" fill="none" xmlns="http://www.w3.org/2000/svg">
<path d="M24 20.0001H16C14.8956 20.0001 14 20.8957 14 22.0001V30.0001C14 31.1044 14.8956 32.0001 16 32.0001H24C25.1044 32.0001 26 31.1044 26 30.0001V22.0001C26 20.8957 25.1044 20.0001 24 20.0001ZM12 2.00006C12 0.895686 11.1044 6.10352e-05 10 6.10352e-05H2C0.895625 6.10352e-05 0 0.895686 0 2.00006V10.0001C0 11.1044 0.895625 12.0001 2 12.0001H7.9825L12.555 20.0026C13.2488 18.8113 14.525 18.0001 16 18.0001H16.0175L12 10.9694V8.00006H26V4.00006H12V2.00006ZM38 6.10352e-05H30C28.8956 6.10352e-05 28 0.895686 28 2.00006V10.0001C28 11.1044 28.8956 12.0001 30 12.0001H38C39.1044 12.0001 40 11.1044 40 10.0001V2.00006C40 0.895686 39.1044 6.10352e-05 38 6.10352e-05Z" fill="white"/>
</svg>
