<svg width="36" height="41" viewBox="0 0 36 41" fill="none" xmlns="http://www.w3.org/2000/svg">
<path d="M35.2542 1.80959C29.8526 -0.296142 10.2735 -1.07461 10.2407 10.6077C4.52841 14.265 0.74585 20.2297 0.74585 26.6053C0.74585 34.3136 6.99384 40.5586 14.7045 40.5586C22.4152 40.5586 28.6632 34.3106 28.6632 26.6053C28.6638 23.7761 27.8044 21.0136 26.1991 18.684C24.5937 16.3544 22.3182 14.5678 19.6742 13.5611C18.6636 13.1704 16.4684 12.4814 14.7152 12.6293C12.214 14.2197 9.164 17.4892 7.7216 20.7456C9.86551 18.1728 13.2168 17.0472 16.1851 17.5298C18.3369 17.8828 20.2933 18.989 21.7051 20.6509C23.1169 22.3128 23.8923 24.4223 23.8928 26.6029C23.8928 31.6823 19.7583 35.7965 14.6789 35.7965C13.3493 35.799 12.0351 35.5121 10.8274 34.9559C9.61974 34.3996 8.54756 33.5873 7.68521 32.5753C5.20964 29.6607 4.57136 26.5009 5.08198 23.4127C6.8459 12.5858 19.6849 6.42668 29.2293 4.06087C26.1154 5.70966 20.5003 8.41549 16.5698 11.3683C28.0303 15.7939 29.8855 6.13081 35.2542 1.80959Z" fill="white"/>
</svg>
