<svg width="40" height="32" viewBox="0 0 40 32" fill="none" xmlns="http://www.w3.org/2000/svg">
<path d="M39 28H34V7.09062C34 5.38687 32.6544 4 31 4H24V8H30V32H39C39.5525 32 40 31.5525 40 31V29C40 28.4475 39.5525 28 39 28ZM19.515 0.0631251L7.515 3.17188C6.62437 3.4025 6 4.23125 6 5.1825V28H1C0.4475 28 0 28.4475 0 29V31C0 31.5525 0.4475 32 1 32H22V2.07375C22 0.725 20.7775 -0.264375 19.515 0.0631251ZM16.5 18C15.6719 18 15 17.1044 15 16C15 14.8956 15.6719 14 16.5 14C17.3281 14 18 14.8956 18 16C18 17.1044 17.3281 18 16.5 18Z" fill="white"/>
</svg>
