<svg width="40" height="40" viewBox="0 0 40 40" fill="none" xmlns="http://www.w3.org/2000/svg">
<g clip-path="url(#clip0_133_450)">
<path d="M23.75 3.75006C23.75 5.82115 22.0711 7.50006 20 7.50006C17.9289 7.50006 16.25 5.82115 16.25 3.75006C16.25 1.67897 17.9289 6.10352e-05 20 6.10352e-05C22.0711 6.10352e-05 23.75 1.67897 23.75 3.75006ZM20 32.5001C17.9289 32.5001 16.25 34.179 16.25 36.2501C16.25 38.3212 17.9289 40.0001 20 40.0001C22.0711 40.0001 23.75 38.3212 23.75 36.2501C23.75 34.179 22.0711 32.5001 20 32.5001ZM36.25 16.2501C34.1789 16.2501 32.5 17.929 32.5 20.0001C32.5 22.0712 34.1789 23.7501 36.25 23.7501C38.3211 23.7501 40 22.0712 40 20.0001C40 17.929 38.3211 16.2501 36.25 16.2501ZM7.5 20.0001C7.5 17.929 5.82109 16.2501 3.75 16.2501C1.67891 16.2501 0 17.929 0 20.0001C0 22.0712 1.67891 23.7501 3.75 23.7501C5.82109 23.7501 7.5 22.0712 7.5 20.0001ZM8.50953 27.7405C6.43844 27.7405 4.75953 29.4194 4.75953 31.4905C4.75953 33.5616 6.43844 35.2405 8.50953 35.2405C10.5806 35.2405 12.2595 33.5616 12.2595 31.4905C12.2595 29.4195 10.5805 27.7405 8.50953 27.7405ZM31.4905 27.7405C29.4194 27.7405 27.7405 29.4194 27.7405 31.4905C27.7405 33.5616 29.4194 35.2405 31.4905 35.2405C33.5616 35.2405 35.2405 33.5616 35.2405 31.4905C35.2405 29.4195 33.5616 27.7405 31.4905 27.7405ZM8.50953 4.75959C6.43844 4.75959 4.75953 6.4385 4.75953 8.50959C4.75953 10.5807 6.43844 12.2596 8.50953 12.2596C10.5806 12.2596 12.2595 10.5807 12.2595 8.50959C12.2595 6.4385 10.5805 4.75959 8.50953 4.75959Z" fill="white"/>
</g>
<defs>
<clipPath id="clip0_133_450">
<rect width="40" height="40" fill="white"/>
</clipPath>
</defs>
</svg>
