<svg width="1000" height="1000" viewBox="0 0 1000 1000" fill="none" xmlns="http://www.w3.org/2000/svg">
<rect width="1000" height="1000" rx="200" fill="url(#paint0_linear_76_125)"/>
<path d="M382.1 269.4V310.5H326.3V480H275V310.5H219.2V269.4H382.1ZM565.646 393.6C565.646 398.4 565.346 403.4 564.746 408.6H448.646C449.446 419 452.746 427 458.546 432.6C464.546 438 471.846 440.7 480.446 440.7C493.246 440.7 502.146 435.3 507.146 424.5H561.746C558.946 435.5 553.846 445.4 546.446 454.2C539.246 463 530.146 469.9 519.146 474.9C508.146 479.9 495.846 482.4 482.246 482.4C465.846 482.4 451.246 478.9 438.446 471.9C425.646 464.9 415.646 454.9 408.446 441.9C401.246 428.9 397.646 413.7 397.646 396.3C397.646 378.9 401.146 363.7 408.146 350.7C415.346 337.7 425.346 327.7 438.146 320.7C450.946 313.7 465.646 310.2 482.246 310.2C498.446 310.2 512.846 313.6 525.446 320.4C538.046 327.2 547.846 336.9 554.846 349.5C562.046 362.1 565.646 376.8 565.646 393.6ZM513.146 380.1C513.146 371.3 510.146 364.3 504.146 359.1C498.146 353.9 490.646 351.3 481.646 351.3C473.046 351.3 465.746 353.8 459.746 358.8C453.946 363.8 450.346 370.9 448.946 380.1H513.146ZM721.709 480L678.809 415.5L641.009 480H582.809L650.309 372.9L581.309 269.4H641.009L683.309 333L720.509 269.4H778.709L711.809 375.6L781.409 480H721.709Z" fill="url(#paint1_linear_76_125)"/>
<path d="M396.9 690.4H464.1V730H345.6V519.4H396.9V690.4ZM478.369 646C478.369 628.8 481.569 613.7 487.969 600.7C494.569 587.7 503.469 577.7 514.669 570.7C525.869 563.7 538.369 560.2 552.169 560.2C563.969 560.2 574.269 562.6 583.069 567.4C592.069 572.2 598.969 578.5 603.769 586.3V562.6H655.069V730H603.769V706.3C598.769 714.1 591.769 720.4 582.769 725.2C573.969 730 563.669 732.4 551.869 732.4C538.269 732.4 525.869 728.9 514.669 721.9C503.469 714.7 494.569 704.6 487.969 691.6C481.569 678.4 478.369 663.2 478.369 646ZM603.769 646.3C603.769 633.5 600.169 623.4 592.969 616C585.969 608.6 577.369 604.9 567.169 604.9C556.969 604.9 548.269 608.6 541.069 616C534.069 623.2 530.569 633.2 530.569 646C530.569 658.8 534.069 669 541.069 676.6C548.269 684 556.969 687.7 567.169 687.7C577.369 687.7 585.969 684 592.969 676.6C600.169 669.2 603.769 659.1 603.769 646.3Z" fill="url(#paint2_linear_76_125)"/>
<path d="M793 368.5L846.879 533.112L962.498 404.145L793 368.5ZM747 650H732V680H747V650ZM881.588 467.699C921.464 520.255 921.797 564.372 899.781 594.829C876.641 626.84 824.784 650 747 650V680C829.09 680 892.789 655.711 924.093 612.404C956.521 567.545 950.186 508.477 905.488 449.565L881.588 467.699Z" fill="#F2433F"/>
<path d="M298.973 612.358L162.913 505.177L138.122 676.599L298.973 612.358ZM179.527 384.132L194.299 381.527L189.09 351.983L174.318 354.588L179.527 384.132ZM170.518 578.948C101.977 553.876 73.1115 509.239 74.5454 472.112C75.9492 435.763 107.008 396.919 179.527 384.132L174.318 354.588C93.5934 368.822 46.7125 415.419 44.5677 470.954C42.453 525.711 84.4301 579.402 160.212 607.123L170.518 578.948Z" fill="#F2433F"/>
<defs>
<linearGradient id="paint0_linear_76_125" x1="500" y1="0" x2="500" y2="1000" gradientUnits="userSpaceOnUse">
<stop stop-color="#EDFDFF"/>
<stop offset="1" stop-color="#EDF8FF"/>
</linearGradient>
<linearGradient id="paint1_linear_76_125" x1="500.5" y1="150" x2="500.5" y2="600" gradientUnits="userSpaceOnUse">
<stop stop-color="#253B54"/>
<stop offset="1" stop-color="#2D4866"/>
</linearGradient>
<linearGradient id="paint2_linear_76_125" x1="500.5" y1="400" x2="500.5" y2="850" gradientUnits="userSpaceOnUse">
<stop stop-color="#253B54"/>
<stop offset="1" stop-color="#2D4866"/>
</linearGradient>
</defs>
</svg>
